<svg id="图层_1" data-name="图层 1" xmlns="http://www.w3.org/2000/svg" viewBox="0 0 480.02 480.09"><defs><style>.cls-1{fill:#fff;}</style></defs><title>Icon</title><polygon class="cls-1" points="474.51 107.2 372.54 107.2 372.54 5.22 352.54 5.22 352.54 107.2 250.56 107.2 250.56 127.2 352.54 127.2 352.54 229.17 372.54 229.17 372.54 127.2 474.51 127.2 474.51 107.2"/><path class="cls-1" d="M15.93,15.8v234h234V15.8ZM192.93,73H97.09v47.69h95.84V144.8H97.09v47.84h95.84V216.8h-120V48.8h120Z" transform="translate(-15.46 -15.8)"/><path class="cls-1" d="M15.46,261.9v234h234v-234ZM192,366.18H168v24h24v71.67H168V390.22H96.6v71.67h-24V390.22h24v-24h-24V294.67h24v71.51H168V294.67h24Z" transform="translate(-15.46 -15.8)"/><rect class="cls-1" x="328.09" y="303.77" width="69.87" height="45.96"/><path class="cls-1" d="M261.49,261.45v234h234v-234Zm176.81,105H414.22v23.93H438.3v71.78H414.22V390.41H342.75v71.78H318.66V294.69H438.3Z" transform="translate(-15.46 -15.8)"/></svg>